<svg xmlns="http://www.w3.org/2000/svg" enable-background="new 0 0 512 512" viewBox="0 0 512 512" id="fox"><path fill="#db3429" d="M287.6 163.1c13-11.4 28-20.2 44-26C313.9 106.4 284.3 83.7 249 75l0 0 0 0c0 34.7 9.2 68.7 26.5 98.7L287.6 163.1zM282.4 185.3l7 11.7h63.2l-7.6-28.2c-2.3-8.6-5.5-16.8-9.4-24.6-9.9 5.1-19.3 11.4-27.8 18.9L282.4 185.3zM507 75L507 75 507 75c0 35.3-9.5 70-27.5 100.4L466.7 197h-63.2l7.6-28.2C423.7 122.4 460.4 86.5 507 75z"></path><path fill="#f7c9ab" d="M507,75L507,75c0,35.3-9.5,70-27.5,100.4L466.7,197h-35.2L507,75z"></path><polygon fill="#f7c9ab" points="305 165.4 282.4 185.3 289.3 197 324.5 197"></polygon><path fill="#f7c9ab" d="M287.6,163.1c3.4-3,7-5.8,10.6-8.4L249,75l0,0c0,34.7,9.2,68.7,26.5,98.7L287.6,163.1z"></path><path fill="#db3429" d="M440.4,321.9L418,197H269c0,40,20.7,77.4,54.7,98.6l35.5,22.2c8.8,5.5,18.6,9,28.8,10.4c-3.3,0.5-6.6,0.7-10,0.7c-13.7,0-27.2-3.9-38.8-11.1l-35.5-22.2C269.7,274.4,249,237,249,197h-60.9c-21.8,0-43.3,4.8-63.1,14c-7.8,0-15.3,0.9-22.6,2.6l-74.9,74.9c-1.7,7.2-2.6,14.8-2.6,22.6c0,7.5,0.7,14.8,1.9,21.9l102.2,102.2c7.1,1.2,14.4,1.9,21.9,1.9h193.1C405,437,451.1,381.9,440.4,321.9z"></path><path fill="#f7c9ab" d="M468.4,163.1c-23.7-20.8-53.7-32.7-85.1-33.9c1.6,0.1,3.2,0.1,4.7,0.3c-29.7,2.2-57.9,13.9-80.4,33.7L269,197c0,40.1,20.7,77.4,54.7,98.6l35.5,22.2c8.8,5.5,18.6,9,28.8,10.4c-1.7,0.2-3.3,0.4-5,0.5c12-0.8,23.6-4.6,33.8-11l35.5-22.2c34-21.3,54.7-58.5,54.7-98.6l0,0L468.4,163.1z"></path><path fill="#db3429" d="M468.4,163.1c-23.7-20.8-53.7-32.7-85.1-33.9c1.6,0.1,3.2,0.1,4.7,0.3c-29.7,2.2-57.9,13.9-80.4,33.7L269,197h31.6c31.7,0,57.9,24.6,59.9,56.3L363,293h30l2.5-39.7c2-31.6,28.2-56.3,59.9-56.3H507L468.4,163.1z"></path><polygon fill="#3179af" points="363 293 393 293 378 323"></polygon><rect width="10" height="20" x="333" y="253" fill="#3179af"></rect><rect width="10" height="20" x="413" y="253" fill="#3179af"></rect><path fill="#db3429" d="M423.9,418.9l-96.8-69.8c-34.3-24.7-75.5-38.1-117.8-38.1l0,0c-23.5,0-46.9,4.1-69,12.2l-5.3,1.9C105.8,335.8,75,314.2,75,283.2l0,0c0-6.7,1.5-13.4,4.5-19.4l24.5-50.6C58.8,222.9,25,263,25,311c0,69.6,56.4,126,126,126h213.1h54C427.7,437,431.8,424.6,423.9,418.9z"></path><path fill="#f7c9ab" d="M327.1,349.1C303.7,332.2,277,320.6,249,315l19,21.5c5.2,5.9,1.9,15.2-5.9,16.5l-18.8,3.1c-10.4,1.7-11.4,16.4-1.3,19.4l17.4,5.3c9,2.7,9.6,15.3,0.8,18.8l-16,6.4c-7.4,3-8.5,13-1.9,17.5L262,437h156c9.7,0,13.7-12.4,5.9-18.1L327.1,349.1z"></path><path fill="#213762" d="M378,334c-14.7,0-29-4.1-41.5-11.9L301,299.9c-35.7-22.3-57-60.8-57-102.9c0-1.4,0.6-2.8,1.7-3.8l38.6-33.9c25.9-22.8,59.2-35.3,93.7-35.3s67.8,12.5,93.7,35.3l38.6,33.9c1.1,0.9,1.7,2.3,1.7,3.8c0,42.1-21.3,80.6-57,102.9l-35.5,22.2C407,329.9,392.7,334,378,334z M254,199.2c0.7,37.8,20.2,72.1,52.3,92.2l35.5,22.2c10.9,6.8,23.4,10.4,36.2,10.4s25.3-3.6,36.2-10.4l35.5-22.2c32.1-20.1,51.5-54.4,52.3-92.2l-36.9-32.4C441,145.7,410.1,134,378,134s-63,11.7-87.1,32.8L254,199.2z"></path><path fill="#213762" d="M393,298h-30c-2.6,0-4.8-2.1-5-4.7l-2.5-39.7c-1.8-28.9-25.9-51.6-54.9-51.6H249c-2.1,0-3.9-1.3-4.7-3.2c-0.7-1.9-0.2-4.1,1.4-5.5l38.6-33.9c25.9-22.8,59.2-35.3,93.7-35.3s67.8,12.5,93.7,35.3l38.6,33.9c1.6,1.4,2.1,3.6,1.4,5.5c-0.7,1.9-2.6,3.2-4.7,3.2h-51.6c-29,0-53.1,22.7-54.9,51.6l-2.5,39.7C397.8,295.9,395.6,298,393,298z M367.7,288h20.6l2.2-35.1c2.1-34.2,30.6-60.9,64.9-60.9h38.4l-28.7-25.2C441,145.7,410.1,134,378,134s-63,11.7-87.1,32.8l0,0L262.3,192h38.4c34.2,0,62.7,26.8,64.9,60.9L367.7,288z"></path><path fill="#213762" d="M378,328c-1.9,0-3.6-1.1-4.5-2.8l-15-30c-0.8-1.5-0.7-3.4,0.2-4.9c0.9-1.5,2.5-2.4,4.3-2.4h30c1.7,0,3.3,0.9,4.3,2.4c0.9,1.5,1,3.3,0.2,4.9l-15,30C381.6,326.9,379.9,328,378,328z M371.1,298l6.9,13.8l6.9-13.8H371.1z"></path><rect width="10" height="20" x="333" y="253" fill="#213762"></rect><rect width="10" height="20" x="413" y="253" fill="#213762"></rect><path fill="#213762" d="M418 442H262c-1 0-2-.3-2.8-.9l-19.6-13.4c-4.6-3.1-7-8.5-6.4-14 .6-5.5 4.2-10.2 9.3-12.3l16-6.4c3-1.2 3.2-4 3.1-4.9s-.4-3.6-3.5-4.6l-17.4-5.3c-6.8-2.1-11.1-8.2-10.6-15.3.5-7.1 5.5-12.7 12.5-13.8l18.8-3.1c2.6-.4 3.6-2.4 3.9-3.3.3-.8.8-3-1-5l-19-21.5c-1.4-1.6-1.7-3.9-.6-5.8 1.1-1.9 3.2-2.8 5.3-2.4 29.1 5.8 56 17.6 80 35l96.8 69.8c5.4 3.9 7.5 10.5 5.5 16.8C430.3 437.9 424.7 442 418 442zM263.5 432H418c3.4 0 4.5-2.7 4.8-3.5s.9-3.6-1.8-5.6l-96.8-69.8 0 0c-18.6-13.4-39-23.3-60.9-29.6l8.5 9.6c3.7 4.1 4.8 9.7 2.9 15-1.9 5.2-6.2 8.9-11.7 9.8l-18.8 3.1c-3.6.6-4.1 3.7-4.2 4.6-.1.9 0 4 3.5 5.1L261 376c6.2 1.9 10.4 7.3 10.6 13.7.3 6.4-3.4 12.2-9.4 14.6l-16 6.4c-2.5 1-3 3.2-3.1 4.1-.1.9-.1 3.1 2.1 4.7L263.5 432zM428.7 397.6l-8.2-5.7c14-20.3 19.3-44.8 15-69.1l-3-16.9 9.8-1.8 3 16.9C450.1 348 444.2 375.1 428.7 397.6z"></path><path fill="#213762" d="M418 442H131C58.8 442 0 383.2 0 311c0-57.5 46.5-104.4 103.9-105 20-9.2 42.2-14 64.2-14H229v10h-60.9c-20.9 0-42 4.7-61 13.5-.7.3-1.4.5-2.1.5-52.4 0-95 42.6-95 95 0 66.7 54.3 121 121 121h287c3.4 0 4.5-2.7 4.8-3.5s.9-3.6-1.8-5.6l-96.8-69.8c-33.7-24.3-73.4-37.1-114.9-37.1-23 0-45.7 4-67.3 11.9l-5.3 1.9c-15.4 5.6-32 3.5-45.4-6C77.7 314.5 70 299.6 70 283.2c0-7.4 1.7-14.9 5-21.6l9 4.4c-2.6 5.3-4 11.3-4 17.3 0 13.1 6.2 24.9 16.9 32.5 10.7 7.5 24 9.3 36.3 4.8l5.3-1.9c22.7-8.3 46.5-12.5 70.8-12.5 43.6 0 85.4 13.5 120.8 39l96.8 69.8c5.4 3.9 7.5 10.5 5.5 16.8C430.3 437.9 424.7 442 418 442zM271.2 176.2C253.4 145.5 244 110.5 244 75c0-1.5.7-3 1.9-3.9 1.2-.9 2.8-1.3 4.3-.9 36 8.9 67.2 32.4 85.8 64.4l-8.7 5c-16.1-27.8-42.6-48.7-73.2-58 1.1 31.5 9.9 62.3 25.7 89.6L271.2 176.2z"></path><rect width="93.6" height="10" x="226.8" y="109.8" fill="#213762" transform="rotate(58.249 273.647 114.81)"></rect><path fill="#213762" d="M484.8,176.2l-8.7-5c15.8-27.3,24.6-58.1,25.7-89.6c-30.7,9.3-57.1,30.2-73.2,58l-8.7-5c18.6-32.1,49.8-55.5,85.8-64.4c1.5-0.4,3.1,0,4.3,0.9c1.2,0.9,1.9,2.4,1.9,3.9C512,110.5,502.6,145.5,484.8,176.2z"></path><rect width="10" height="93.6" x="477.4" y="68" fill="#213762" transform="rotate(31.748 482.334 114.795)"></rect></svg>
