<svg xmlns="http://www.w3.org/2000/svg" xmlns:xlink="http://www.w3.org/1999/xlink" width="500" zoomAndPan="magnify" viewBox="0 0 375 374.999991" height="500" preserveAspectRatio="xMidYMid meet" version="1.0"><defs><g/><clipPath id="b64279e53e"><path d="M 14 36 L 335 36 L 335 352.171875 L 14 352.171875 Z M 14 36 " clip-rule="nonzero"/></clipPath><clipPath id="5a90399287"><path d="M 181.648438 334 L 370.199219 334 L 370.199219 360.410156 L 181.648438 360.410156 Z M 181.648438 334 " clip-rule="nonzero"/></clipPath><clipPath id="c4d9be8478"><path d="M 69 206 L 211 206 L 211 311 L 69 311 Z M 69 206 " clip-rule="nonzero"/></clipPath><clipPath id="dec4b96ad3"><path d="M 152.082031 338.609375 L 54.171875 275.839844 L 113.136719 183.863281 L 211.046875 246.632812 Z M 152.082031 338.609375 " clip-rule="nonzero"/></clipPath><clipPath id="5c641a2a16"><path d="M 54.101562 275.792969 L 152.011719 338.5625 L 210.976562 246.585938 L 113.066406 183.816406 Z M 54.101562 275.792969 " clip-rule="nonzero"/></clipPath><clipPath id="57d8f83136"><path d="M 92 206 L 161 206 L 161 233 L 92 233 Z M 92 206 " clip-rule="nonzero"/></clipPath><clipPath id="dd903ff549"><path d="M 152.082031 338.609375 L 54.171875 275.839844 L 113.136719 183.863281 L 211.046875 246.632812 Z M 152.082031 338.609375 " clip-rule="nonzero"/></clipPath><clipPath id="0f10463a4e"><path d="M 54.101562 275.792969 L 152.011719 338.5625 L 210.976562 246.585938 L 113.066406 183.816406 Z M 54.101562 275.792969 " clip-rule="nonzero"/></clipPath></defs><g clip-path="url(#b64279e53e)"><path fill="#c63b1b" d="M 37.449219 234.171875 L 47.609375 229.519531 L 46.179688 270.242188 L 14.546875 244.660156 L 26.3125 239.269531 C 5.980469 170.804688 34.191406 94.816406 98.589844 57.539062 C 173.878906 13.957031 270.296875 39.859375 313.769531 115.347656 C 357.234375 190.832031 331.402344 287.5 256.109375 331.085938 C 232.164062 344.945312 205 352.242188 177.347656 352.242188 L 177.347656 340.09375 C 202.875 340.09375 227.945312 333.359375 250.050781 320.5625 C 319.550781 280.332031 343.398438 191.097656 303.273438 121.421875 C 263.148438 51.738281 174.148438 27.832031 104.648438 68.058594 C 45.714844 102.175781 19.609375 171.40625 37.449219 234.171875 Z M 37.449219 234.171875 " fill-opacity="1" fill-rule="evenodd"/></g><g clip-path="url(#5a90399287)"><path fill="#c63b1b" d="M 370.179688 347.203125 L 330.542969 334.0625 L 330.542969 342.726562 L 181.648438 342.726562 L 181.648438 351.679688 L 330.542969 351.679688 L 330.542969 360.347656 Z M 370.179688 347.203125 " fill-opacity="1" fill-rule="nonzero"/></g><g fill="#c63b1b" fill-opacity="1"><g transform="translate(110.232474, 264.216445)"><g><path d="M 73.671875 2.390625 C 62.148438 2.390625 51.898438 0.96875 42.921875 -1.875 C 33.941406 -4.71875 26.457031 -8.453125 20.46875 -13.078125 C 14.476562 -17.703125 9.890625 -22.78125 6.703125 -28.3125 L 24.78125 -50.359375 L 27.625 -50.359375 C 32.625 -42.929688 38.972656 -37.019531 46.671875 -32.625 C 54.367188 -28.226562 63.367188 -26.03125 73.671875 -26.03125 C 82.460938 -26.03125 89.09375 -27.882812 93.5625 -31.59375 C 98.039062 -35.3125 100.28125 -40.429688 100.28125 -46.953125 C 100.28125 -50.898438 99.554688 -54.195312 98.109375 -56.84375 C 96.671875 -59.5 94.285156 -61.773438 90.953125 -63.671875 C 87.617188 -65.566406 83.109375 -67.195312 77.421875 -68.5625 L 56.046875 -73.453125 C 41.117188 -76.859375 29.992188 -82.519531 22.671875 -90.4375 C 15.359375 -98.363281 11.703125 -108.65625 11.703125 -121.3125 C 11.703125 -130.707031 14.050781 -138.96875 18.75 -146.09375 C 23.457031 -153.21875 30.300781 -158.75 39.28125 -162.6875 C 48.257812 -166.632812 59.003906 -168.609375 71.515625 -168.609375 C 84.328125 -168.609375 95.296875 -166.921875 104.421875 -163.546875 C 113.554688 -160.171875 121.269531 -155 127.5625 -148.03125 L 111.3125 -125.75 L 108.46875 -125.75 C 103.769531 -130.675781 98.382812 -134.367188 92.3125 -136.828125 C 86.25 -139.296875 79.316406 -140.53125 71.515625 -140.53125 C 62.492188 -140.53125 55.632812 -138.9375 50.9375 -135.75 C 46.238281 -132.5625 43.890625 -128.164062 43.890625 -122.5625 C 43.890625 -117.332031 45.535156 -113.160156 48.828125 -110.046875 C 52.128906 -106.941406 57.832031 -104.519531 65.9375 -102.78125 L 87.765625 -98.234375 C 103.910156 -94.816406 115.617188 -89.035156 122.890625 -80.890625 C 130.171875 -72.742188 133.8125 -62.113281 133.8125 -49 C 133.8125 -38.613281 131.578125 -29.570312 127.109375 -21.875 C 122.640625 -14.1875 115.894531 -8.21875 106.875 -3.96875 C 97.851562 0.269531 86.785156 2.390625 73.671875 2.390625 Z M 73.671875 2.390625 "/></g></g></g><g clip-path="url(#c4d9be8478)"><g clip-path="url(#dec4b96ad3)"><g clip-path="url(#5c641a2a16)"><path fill="#c63b1b" d="M 102.199219 302.894531 C 104.761719 304.183594 107.128906 305.117188 109.019531 305.769531 C 107.230469 303.265625 105.90625 300.386719 105.058594 297.167969 C 104.039062 293.304688 103.710938 288.945312 104.078125 284.214844 C 104.699219 276.222656 107.070312 269.980469 107.171875 269.71875 L 108.234375 266.941406 L 111.625 273.253906 C 111.65625 268.984375 112.226562 264.789062 113.332031 260.726562 C 114.636719 255.925781 116.691406 251.300781 119.429688 246.976562 C 120.25 245.683594 121.085938 244.492188 121.902344 243.40625 L 109.792969 258.25 C 115.292969 248.988281 111.792969 240.742188 111.792969 240.742188 C 96.863281 247.011719 94.378906 262.257812 94.378906 262.257812 C 89.148438 255.164062 93.984375 242.753906 93.984375 242.753906 C 82.640625 255.566406 84.808594 271.996094 84.808594 271.996094 L 80.03125 256.949219 C 77.921875 268.351562 79.253906 278.261719 84.023438 286.503906 C 88.910156 294.953125 96.605469 300.082031 102.199219 302.894531 Z M 81.675781 287.882812 C 75.851562 277.835938 74.785156 265.570312 78.484375 251.367188 C 73.027344 256.917969 73.019531 256.925781 73.015625 256.925781 L 69.296875 260.660156 L 70.734375 255.589844 C 71.785156 251.878906 72.84375 249.105469 74.386719 246.019531 C 78.460938 237.859375 83.71875 230.261719 90.015625 223.429688 C 90.53125 222.871094 91.050781 222.324219 91.578125 221.789062 C 96.820312 216.453125 102.429688 212.496094 108.277344 210.003906 C 110.121094 209.222656 112.015625 208.574219 113.914062 208.074219 C 119.242188 206.679688 124.375 206.273438 129.597656 206.835938 C 134.242188 207.335938 138.847656 208.59375 143.671875 210.683594 C 152.542969 214.527344 160.808594 220.667969 168.804688 226.605469 C 175.144531 231.3125 181.527344 236.027344 188.507812 239.753906 C 189.0625 240.050781 189.621094 240.332031 190.1875 240.601562 C 192.917969 241.90625 195.765625 242.925781 198.667969 243.753906 C 202.0625 244.800781 206.140625 245.800781 210.277344 246.230469 L 210.289062 246.234375 C 210.6875 246.40625 210.695312 246.96875 210.304688 247.15625 C 198.230469 252.976562 182.929688 251.0625 182.925781 251.058594 C 176.128906 250.15625 170.113281 247.929688 164.269531 244.25 C 163.636719 243.851562 162.984375 243.4375 162.355469 243.035156 C 155.824219 238.875 149.066406 234.570312 141.617188 234.261719 C 137.789062 234.101562 134.113281 235.289062 130.988281 237.703125 C 130.9375 237.738281 126.089844 241.539062 121.679688 248.53125 C 117.632812 254.945312 113.132812 265.457031 114.660156 279.113281 L 115.441406 286.125 L 108.761719 273.679688 C 108.042969 276.207031 107.128906 280.105469 106.792969 284.5 C 106.03125 294.5 108.46875 302.199219 114.046875 307.386719 L 117.605469 310.699219 L 112.84375 309.714844 C 112.628906 309.671875 107.484375 308.585938 101.0625 305.371094 C 97.285156 303.480469 93.851562 301.238281 90.851562 298.707031 C 87.082031 295.53125 83.996094 291.890625 81.675781 287.882812 " fill-opacity="1" fill-rule="nonzero"/></g></g></g><g clip-path="url(#57d8f83136)"><g clip-path="url(#dd903ff549)"><g clip-path="url(#0f10463a4e)"><path fill="#f68712" d="M 99.851562 215.953125 C 99.851562 215.953125 92.835938 225.855469 92.078125 232.15625 C 92.078125 232.15625 100.632812 212.390625 124.523438 217.402344 L 120.242188 222.863281 C 120.242188 222.863281 140.664062 212.945312 160.171875 220.316406 C 154.863281 216.597656 149.394531 213.164062 143.671875 210.683594 C 138.847656 208.59375 134.242188 207.335938 129.597656 206.835938 C 124.375 206.273438 119.242188 206.679688 113.914062 208.074219 C 112.015625 208.574219 110.121094 209.222656 108.277344 210.003906 C 104.4375 211.640625 100.699219 213.910156 97.097656 216.789062 L 99.851562 215.953125 " fill-opacity="1" fill-rule="nonzero"/></g></g></g></svg>